<svg aria-hidden="true" style="width:0;height:0;position:absolute;overflow:hidden" xmlns="http://www.w3.org/2000/svg"><defs><symbol id="film" viewBox="0 0 32 32"><path stroke-linejoin="round" stroke-linecap="round" stroke-width="2.667" d="M26.427 2.667H5.574a2.907 2.907 0 0 0-2.907 2.907v20.853a2.907 2.907 0 0 0 2.907 2.907h20.853a2.907 2.907 0 0 0 2.907-2.907V5.574a2.907 2.907 0 0 0-2.907-2.907zm-17.094 0v26.667M22.667 2.667v26.667M2.667 16h26.667M2.667 9.333h6.667M2.667 22.667h6.667m13.333 0h6.667M22.667 9.333h6.667"/></symbol><symbol id="heart" viewBox="0 0 32 32"><path d="m16 30.144-2.24-2.218C5.44 20.639 0 15.728 0 9.708 0 4.797 3.84.995 8.8.995c2.72 0 5.44 1.267 7.2 3.327C17.76 2.263 20.48.995 23.2.995c4.96 0 8.8 3.802 8.8 8.713 0 6.02-5.44 10.931-13.76 18.218L16 30.144z"/></symbol><symbol id="search" viewBox="0 0 32 32"><path stroke-linejoin="round" stroke-linecap="round" stroke-width="2.667" d="M14.667 25.333c5.891 0 10.667-4.776 10.667-10.667S20.558 3.999 14.667 3.999 4 8.775 4 14.666s4.776 10.667 10.667 10.667zM28 28.001l-5.8-5.8"/></symbol><symbol id="points" viewBox="0 0 107 32"><path d="M17.25 5.333c2.833 0 5.021.813 6.562 2.438 1.542 1.583 2.313 3.583 2.313 6 0 2.375-.771 4.354-2.313 5.938-1.542 1.542-3.729 2.312-6.562 2.312-2.708 0-4.854-.771-6.438-2.312s-2.375-3.521-2.375-5.938.771-4.417 2.312-6c1.542-1.625 3.708-2.438 6.5-2.438zm35.75 0c2.833 0 5.021.813 6.562 2.438 1.542 1.583 2.313 3.583 2.313 6 0 2.375-.771 4.354-2.313 5.938-1.542 1.542-3.729 2.312-6.562 2.312-2.708 0-4.854-.771-6.438-2.312s-2.375-3.521-2.375-5.938.771-4.417 2.313-6c1.542-1.625 3.708-2.438 6.5-2.438zm35.75 0c2.833 0 5.021.813 6.563 2.438 1.542 1.583 2.312 3.583 2.312 6 0 2.375-.771 4.354-2.312 5.938-1.542 1.542-3.729 2.312-6.563 2.312-2.708 0-4.854-.771-6.437-2.312s-2.375-3.521-2.375-5.938.771-4.417 2.313-6c1.542-1.625 3.708-2.438 6.5-2.438z"/></symbol><style>.img{display:none}.img:target{display:inline}</style></defs><path stroke="#000" stroke-linecap="round" stroke-linejoin="round" stroke-width="1.333" d="M12.667 8H3.333M8 12.667 3.333 8 8 3.333" id="arrow-left" class="img" fill="none"/><path stroke="#000" stroke-linecap="round" stroke-linejoin="round" stroke-width="1.333" d="M3.333 8h9.334M8 12.667 12.667 8 8 3.333" id="arrow-right" class="img" fill="none"/><path stroke="#000" stroke-width="2" d="m8 8 14 14M8 22 22 8" id="modal-close" class="img" fill="none"/></svg>